<?xml version="1.0" encoding="UTF-8"?>
<!-- Generator: Adobe Illustrator 24.1.1, SVG Export Plug-In . SVG Version: 6.00 Build 0)  -->
<svg version="1.1" id="Layer_1" xmlns="http://www.w3.org/2000/svg" xmlns:xlink="http://www.w3.org/1999/xlink" x="0px" y="0px" viewBox="0 0 512 512" style="enable-background:new 0 0 512 512;" xml:space="preserve">
<style type="text/css">
	.st0{fill:#333333;}
</style>
<g id="XMLID_1_">
	<polygon id="XMLID_8_" class="st0" points="484.4,96.9 479.7,96.1 32.3,96.1 29.1,96.9 256,298.5  "/>
	<path id="XMLID_9_" class="st0" d="M509.6,117.4L348.2,259.9l159.9,139.4c2.4-4.7,3.9-9.5,3.9-15v-256   C512,124.5,511.2,120.5,509.6,117.4z"/>
	<path id="XMLID_10_" class="st0" d="M2.4,115.8c-1.6,3.9-2.4,7.9-2.4,12.6v256c0,4.7,0.8,8.7,3.2,13.4l160.7-137.8L2.4,115.8z"/>
	<polygon id="XMLID_11_" class="st0" points="256,341.1 187.5,280.4 29.9,415.9 32.3,415.9 478.9,415.9 324.5,281.2  "/>
</g>
</svg>